<?xml version="1.0" encoding="utf-8"?>
<!-- Generator: Adobe Illustrator 23.0.1, SVG Export Plug-In . SVG Version: 6.00 Build 0)  -->
<svg version="1.1" id="Layer_1" xmlns="http://www.w3.org/2000/svg" xmlns:xlink="http://www.w3.org/1999/xlink" x="0px" y="0px"
	 viewBox="0 0 165.19 200.47" style="enable-background:new 0 0 165.19 200.47;" xml:space="preserve">
<style type="text/css">
	.st0{clip-path:url(#SVGID_2_);fill:url(#SVGID_3_);}
	.st1{clip-path:url(#SVGID_5_);fill:url(#SVGID_6_);}
	.st2{clip-path:url(#SVGID_8_);fill:url(#SVGID_9_);}
	.st3{clip-path:url(#SVGID_11_);fill:url(#SVGID_12_);}
</style>
<g>
	<defs>
		<path id="SVGID_1_" d="M45.24,75.79c0-7.64,6.21-13.85,13.85-13.85c7.64,0,13.85,6.21,13.85,13.85c0,7.64-6.21,13.85-13.85,13.85
			C51.45,89.64,45.24,83.43,45.24,75.79 M36.92,75.79c0,12.22,9.94,22.17,22.17,22.17s22.16-9.94,22.16-22.17
			c0-12.22-9.94-22.16-22.16-22.16S36.92,63.57,36.92,75.79 M91.42,75.79c0-7.64,6.21-13.85,13.85-13.85s13.85,6.21,13.85,13.85
			c0,7.64-6.21,13.85-13.85,13.85S91.42,83.43,91.42,75.79 M83.11,75.79c0,12.22,9.94,22.17,22.16,22.17s22.16-9.94,22.16-22.17
			c0-12.22-9.94-22.16-22.16-22.16S83.11,63.57,83.11,75.79 M45.51,124.04c0-3.4,0.44-6.8,1.32-10.09l0.57-2.15l-1.47-1.67
			c-8.42-9.54-13.06-21.92-13.06-34.87c0-28.45,22.28-51.6,49.67-51.6s49.67,23.15,49.67,51.6c0,12.45-4.34,24.48-12.23,33.88
			l-1.43,1.71l0.63,2.14c1.05,3.59,1.59,7.31,1.59,11.06c0,21.2-16.88,38.45-37.63,38.45S45.51,145.24,45.51,124.04 M24.55,75.25
			c0,14.23,4.86,27.89,13.73,38.7c-0.72,3.31-1.08,6.69-1.08,10.08c0,25.79,20.61,46.77,45.94,46.77
			c25.33,0,45.94-20.98,45.94-46.77c0-3.8-0.45-7.58-1.35-11.26c8.27-10.62,12.79-23.86,12.79-37.52
			c0-33.04-26.01-59.91-57.99-59.91C50.56,15.34,24.55,42.22,24.55,75.25"/>
	</defs>
	<clipPath id="SVGID_2_">
		<use xlink:href="#SVGID_1_"  style="overflow:visible;"/>
	</clipPath>
	
		<linearGradient id="SVGID_3_" gradientUnits="userSpaceOnUse" x1="-332.6719" y1="418.873" x2="-331.6719" y2="418.873" gradientTransform="matrix(103.1133 164.6487 164.6487 -103.1133 -34628.3242 97983.625)">
		<stop  offset="0" style="stop-color:#EA1D89"/>
		<stop  offset="1" style="stop-color:#662F8E"/>
	</linearGradient>
	<polygon class="st0" points="107.86,-36.83 210.46,127.01 57.22,222.98 -45.38,59.14 	"/>
</g>
<g>
	<defs>
		<path id="SVGID_4_" d="M71.9,129.77c0-6.35,5.17-11.51,11.51-11.51c6.35,0,11.51,5.17,11.51,11.51s-5.16,11.51-11.51,11.51
			C77.07,141.28,71.9,136.11,71.9,129.77 M63.59,129.77c0,10.93,8.89,19.83,19.83,19.83s19.83-8.89,19.83-19.83
			s-8.89-19.83-19.83-19.83S63.59,118.83,63.59,129.77"/>
	</defs>
	<clipPath id="SVGID_5_">
		<use xlink:href="#SVGID_4_"  style="overflow:visible;"/>
	</clipPath>
	
		<linearGradient id="SVGID_6_" gradientUnits="userSpaceOnUse" x1="-332.6719" y1="419.1486" x2="-331.6719" y2="419.1486" gradientTransform="matrix(103.1133 164.6487 164.6487 -103.1133 -34689.5703 98021.9766)">
		<stop  offset="0" style="stop-color:#EA1D89"/>
		<stop  offset="1" style="stop-color:#662F8E"/>
	</linearGradient>
	<polygon class="st1" points="92.07,92.1 121.08,138.42 74.76,167.43 45.75,121.11 	"/>
</g>
<g>
	<defs>
		<path id="SVGID_7_" d="M32.06,176.87c-0.26-0.07-0.75-0.27-1.06-0.81l-16.1-27.88c-0.31-0.54-0.24-1.06-0.17-1.33
			c0.07-0.26,0.27-0.75,0.81-1.07l21.97-12.68c2,12.23,8.39,23.16,18.02,30.81L33.39,176.7c-0.3,0.18-0.6,0.23-0.85,0.23
			C32.34,176.93,32.18,176.9,32.06,176.87 M11.38,138.59c-3.2,1.85-5.01,5.21-5.03,8.67v0.15c0.01,1.68,0.45,3.38,1.35,4.94
			l16.1,27.88c1.34,2.32,3.51,3.99,6.11,4.68c0.35,0.09,0.71,0.17,1.06,0.23h3.13c1.2-0.19,2.36-0.6,3.44-1.22l34-19.63l-6.13-3.62
			c-12.24-7.24-19.81-20.13-20.25-34.49l-0.21-6.95L11.38,138.59z"/>
	</defs>
	<clipPath id="SVGID_8_">
		<use xlink:href="#SVGID_7_"  style="overflow:visible;"/>
	</clipPath>
	
		<linearGradient id="SVGID_9_" gradientUnits="userSpaceOnUse" x1="-332.6719" y1="419.1487" x2="-331.6719" y2="419.1487" gradientTransform="matrix(103.1133 164.6487 164.6487 -103.1133 -34731.5977 98048.2969)">
		<stop  offset="0" style="stop-color:#EA1D89"/>
		<stop  offset="1" style="stop-color:#662F8E"/>
	</linearGradient>
	<polygon class="st2" points="53.18,89.87 101.21,166.55 24.72,214.45 -23.3,137.77 	"/>
</g>
<g>
	<defs>
		<path id="SVGID_10_" d="M132.72,176.7l-22.14-12.79c9.63-7.65,16.02-18.58,18.02-30.81l21.97,12.68c0.54,0.31,0.74,0.8,0.81,1.07
			c0.07,0.26,0.14,0.79-0.17,1.33l-16.1,27.88c-0.31,0.54-0.8,0.74-1.06,0.81c-0.12,0.03-0.28,0.06-0.47,0.06
			C133.32,176.93,133.02,176.88,132.72,176.7 M120.93,126.15c-0.43,14.36-8,27.26-20.25,34.49l-6.13,3.62l34,19.63
			c1.08,0.62,2.25,1.03,3.44,1.22h3.13c0.35-0.06,0.71-0.13,1.06-0.23c2.6-0.7,4.77-2.36,6.11-4.68l16.1-27.88
			c0.16-0.27,0.3-0.55,0.43-0.83v-8.41c-0.84-1.83-2.24-3.44-4.11-4.52l-33.58-19.39L120.93,126.15z"/>
	</defs>
	<clipPath id="SVGID_11_">
		<use xlink:href="#SVGID_10_"  style="overflow:visible;"/>
	</clipPath>
	
		<linearGradient id="SVGID_12_" gradientUnits="userSpaceOnUse" x1="-332.6719" y1="419.0922" x2="-331.6719" y2="419.0922" gradientTransform="matrix(103.1133 164.6487 164.6487 -103.1133 -34659.2734 98003.0078)">
		<stop  offset="0" style="stop-color:#EA1D89"/>
		<stop  offset="1" style="stop-color:#662F8E"/>
	</linearGradient>
	<polygon class="st3" points="140.73,90.29 188.49,166.55 112.67,214.04 64.9,137.77 	"/>
</g>
</svg>
