<svg id="Layer_1" data-name="Layer 1" xmlns="http://www.w3.org/2000/svg" xmlns:xlink="http://www.w3.org/1999/xlink" viewBox="0 0 325.31 325.31"><defs><style>.cls-1{fill:none;}.cls-2{clip-path:url(#clip-path);}.cls-3{fill:url(#linear-gradient);}.cls-4{clip-path:url(#clip-path-2);}.cls-5{fill:url(#linear-gradient-2);}</style><clipPath id="clip-path" transform="translate(79.97 62.42)"><path class="cls-1" d="M49.81,100.32a33,33,0,1,1,33,33,33,33,0,0,1-33-33M68.6,33.24A14.26,14.26,0,0,0,78.17,46.7l0,12.45A41.24,41.24,0,0,0,57,68L48,59.06a14.25,14.25,0,1,0-6.58,6.55l8.95,8.92a41.27,41.27,0,0,0-8.77,21.11l-12.75,0a14.25,14.25,0,0,0-27.64,3v3.29a14.24,14.24,0,0,0,27.61,3l12.77,0a41.22,41.22,0,0,0,8.67,21l-9.07,9.11a14.26,14.26,0,1,0,6.55,6.59l9.06-9.1a41.22,41.22,0,0,0,21,8.87l0,12.8a14.25,14.25,0,0,0,.85,27.23h7.52a14.25,14.25,0,0,0,.92-27.21l0-12.73A41.22,41.22,0,0,0,108.28,133l9,8.93a14.25,14.25,0,1,0,6.59-6.55l-8.93-8.89a41.16,41.16,0,0,0,9-21.14l12.48,0a14.24,14.24,0,1,0,0-9.29L124,96a41.14,41.14,0,0,0-8.7-21.37l8.76-8.79a14.26,14.26,0,1,0-6.55-6.59l-8.74,8.78a41.17,41.17,0,0,0-21.29-8.91l0-12.44A14.25,14.25,0,1,0,68.6,33.24"/></clipPath><linearGradient id="linear-gradient" x1="-331.95" y1="419.02" x2="-330.95" y2="419.02" gradientTransform="matrix(0, 170.77, 170.77, 0, -71472.03, 56696.19)" gradientUnits="userSpaceOnUse"><stop offset="0" stop-color="#ea1d89"/><stop offset="1" stop-color="#662f8e"/></linearGradient><clipPath id="clip-path-2" transform="translate(79.97 62.42)"><path class="cls-1" d="M63.52,100c0,10.27,7.91,18.25,17.55,18.25a16.64,16.64,0,0,0,5.52-.91,2.33,2.33,0,0,0,1.55-2.2v-3.66a.43.43,0,0,0-.63-.38,12.64,12.64,0,0,1-5.68,1.32A12.42,12.42,0,1,1,94.18,100v16a1.33,1.33,0,0,0,1.33,1.33h3.37a1.33,1.33,0,0,0,1.34-1.33V83.62a1,1,0,0,0-1-1H95.17a1,1,0,0,0-1,1v5a15,15,0,0,0-13.11-6.87c-9.64,0-17.55,8-17.55,18.24"/></clipPath><linearGradient id="linear-gradient-2" x1="-331.95" y1="419.35" x2="-330.95" y2="419.35" gradientTransform="matrix(0, 170.77, 170.77, 0, -71529.35, 56696.69)" xlink:href="#linear-gradient"/></defs><title>Asset Manager</title><g class="cls-2"><rect class="cls-3" x="-32.34" y="-14.8" width="230.06" height="230.07" transform="translate(33.11 152.51) rotate(-46)"/></g><g class="cls-4"><rect class="cls-5" x="56" y="74.1" width="51.74" height="51.74" transform="translate(33.05 151.83) rotate(-46)"/></g></svg>