<svg id="Layer_1" data-name="Layer 1" xmlns="http://www.w3.org/2000/svg" xmlns:xlink="http://www.w3.org/1999/xlink" viewBox="0 0 263.21 262.83"><defs><style>.cls-1{fill:none;}.cls-2{clip-path:url(#clip-path);}.cls-3{fill:url(#linear-gradient);}</style><clipPath id="clip-path" transform="translate(48.82 33.01)"><path class="cls-1" d="M39.43,98.41a4.07,4.07,0,0,0-3.78,3.78V123a4.06,4.06,0,0,0,3.78,3.78H46A4.06,4.06,0,0,0,49.82,123V102.19A4.07,4.07,0,0,0,46,98.41ZM96.12,79.52a4.06,4.06,0,0,0-3.78,3.78V123a4.06,4.06,0,0,0,3.78,3.78h6.62a4.06,4.06,0,0,0,3.78-3.78V83.3a4.06,4.06,0,0,0-3.78-3.78ZM67.78,60.62A4.06,4.06,0,0,0,64,64.4V123a4.06,4.06,0,0,0,3.78,3.78h6.61A4.06,4.06,0,0,0,78.17,123V64.4a4.06,4.06,0,0,0-3.78-3.78Zm56.69-9.45A4.06,4.06,0,0,0,120.69,55v68a4.06,4.06,0,0,0,3.78,3.78h6.62a4.06,4.06,0,0,0,3.78-3.78V55a4.06,4.06,0,0,0-3.78-3.78ZM12,41.72A4.73,4.73,0,0,0,7.3,46.45v99.21a9.44,9.44,0,0,0,8.91,9.43H154.15a4.72,4.72,0,0,0,4.11-3.27v-7.6a4.7,4.7,0,0,0-4.5-3.28H21.48V46.45a4.73,4.73,0,0,0-4.73-4.73Z"/></clipPath><linearGradient id="linear-gradient" x1="-330.86" y1="417.31" x2="-329.86" y2="417.31" gradientTransform="matrix(0, 233.43, 233.43, 0, -97330.3, 77215.06)" gradientUnits="userSpaceOnUse"><stop offset="0" stop-color="#ea1d89"/><stop offset="1" stop-color="#662f8e"/></linearGradient></defs><title>Dashboard</title><g class="cls-2"><rect class="cls-3" x="-9.5" y="4.25" width="184.57" height="188.32" transform="translate(3.02 129.43) rotate(-49.04)"/></g></svg>