<svg id="Layer_1" data-name="Layer 1" xmlns="http://www.w3.org/2000/svg" xmlns:xlink="http://www.w3.org/1999/xlink" viewBox="0 0 248.48 274.21"><defs><style>.cls-1{fill:none;}.cls-2{clip-path:url(#clip-path);}.cls-3{fill:url(#linear-gradient);}.cls-4{clip-path:url(#clip-path-2);}.cls-5{fill:url(#linear-gradient-2);}.cls-6{clip-path:url(#clip-path-3);}.cls-7{fill:url(#linear-gradient-3);}.cls-8{clip-path:url(#clip-path-4);}.cls-9{fill:url(#linear-gradient-4);}</style><clipPath id="clip-path" transform="translate(41.55 50.91)"><rect class="cls-1" x="65.3" y="140.95" width="37.53" height="7.04"/></clipPath><linearGradient id="linear-gradient" x1="-332.67" y1="419.13" x2="-331.67" y2="419.13" gradientTransform="matrix(0, 195.88, 195.88, 0, -82014.42, 65164.51)" gradientUnits="userSpaceOnUse"><stop offset="0" stop-color="#ea1d89"/><stop offset="1" stop-color="#662f8e"/></linearGradient><clipPath id="clip-path-2" transform="translate(41.55 50.91)"><path class="cls-1" d="M82,1.06c-36.39,1-66.79,30.55-67.77,65.86,0,1-.06,1.92-.06,2.87V70c0,22,10.22,42.33,27.58,54.87a24.27,24.27,0,0,1,9.78,19.57V148H68v-7H58.33a31.29,31.29,0,0,0-12.46-21.72C29.56,107.46,20.35,88,21.21,67.16,22.09,35.48,49.42,9,82.13,8.1A60.12,60.12,0,0,1,126,25.39a61.61,61.61,0,0,1,18.78,44.47c0,20.23-9.53,38.66-25.48,49.3l-.34.25A33.45,33.45,0,0,0,107.63,141H98v7h16.51v-3.52a26.29,26.29,0,0,1,8.88-19.58c15.52-10.43,25.59-27.4,27.91-46.49V61.35a68.52,68.52,0,0,0-20.39-41A67.08,67.08,0,0,0,83.74,1L82,1.06"/></clipPath><linearGradient id="linear-gradient-2" x1="-332.67" y1="418.85" x2="-331.67" y2="418.85" gradientTransform="matrix(0, 195.88, 195.88, 0, -81961.2, 65158.69)" xlink:href="#linear-gradient"/><clipPath id="clip-path-3" transform="translate(41.55 50.91)"><path class="cls-1" d="M72.88,185.32l-.57-2-2.07-.45C61.91,181,58.52,177,58.52,168.75v-5.81h48.91v5.81c0,8.21-3.39,12.29-11.72,14.08l-2.07.45-.57,2a10.4,10.4,0,0,1-20.19,0M51.48,155.9v12.85c0,10.77,5.16,17.66,15.33,20.49a18.25,18.25,0,0,0,11.06,10.19H88.08a18.25,18.25,0,0,0,11.06-10.19c10.18-2.83,15.33-9.72,15.33-20.49V155.9Z"/></clipPath><linearGradient id="linear-gradient-3" x1="-332.67" y1="419.03" x2="-331.67" y2="419.03" gradientTransform="matrix(0, 195.88, 195.88, 0, -81996.37, 65167.95)" xlink:href="#linear-gradient"/><clipPath id="clip-path-4" transform="translate(41.55 50.91)"><path class="cls-1" d="M58.38,71.06c0-1.53.57-6.54,6.51-6.54,1,0,6,.33,6.51,6.64v6.59H65.1c-6.13,0-6.69-5.16-6.72-6.69m35.19.09c.08-1,.78-6.63,6.5-6.63,5.94,0,6.49,5,6.51,6.51,0,1.12-.32,6.72-6.72,6.72H93.57Zm-7-.33v6.93H78.43V70.82C78.15,66.2,75,57.48,64.89,57.48S51.34,65.59,51.34,71,55,84.79,65.1,84.79h6.3V148h7V84.79h8.11V148h7V84.79h6.29c10.1,0,13.76-8.23,13.76-13.76S110,57.48,100.07,57.48,86.82,66.2,86.54,70.82"/></clipPath><linearGradient id="linear-gradient-4" x1="-332.67" y1="419" x2="-331.67" y2="419" gradientTransform="matrix(0, 195.88, 195.88, 0, -81990.67, 65161.35)" xlink:href="#linear-gradient"/></defs><title>Energy</title><g class="cls-2"><rect class="cls-3" x="65.54" y="133.45" width="37.05" height="22.04" transform="translate(-11.01 99.1) rotate(-24.63)"/></g><g class="cls-4"><rect class="cls-5" x="-10.26" y="-20.85" width="185.91" height="190.73" transform="translate(18.02 92.16) rotate(-24.63)"/></g><g class="cls-6"><rect class="cls-7" x="45.28" y="144.76" width="75.4" height="65.82" transform="translate(-24.94 101.66) rotate(-24.63)"/></g><g class="cls-8"><rect class="cls-9" x="35.32" y="48.62" width="94.33" height="108.23" transform="translate(6.24 94.64) rotate(-24.63)"/></g></svg>