<svg id="Layer_1" data-name="Layer 1" xmlns="http://www.w3.org/2000/svg" xmlns:xlink="http://www.w3.org/1999/xlink" viewBox="0 0 234.7 234.68"><defs><style>.cls-1{fill:none;}.cls-2{clip-path:url(#clip-path);}.cls-3{fill:url(#linear-gradient);}.cls-4{clip-path:url(#clip-path-2);}.cls-5{fill:url(#linear-gradient-2);}.cls-6{clip-path:url(#clip-path-3);}.cls-7{fill:url(#linear-gradient-3);}</style><clipPath id="clip-path" transform="translate(34.57 17.1)"><path class="cls-1" d="M124.51,139.42h9.17a12.19,12.19,0,0,1-9.24,10.26Zm-93.08,8.35V91.85H133.79v38.73H115.73L115.6,150H33.68a2.28,2.28,0,0,1-2.25-2.25m85.18-84.12h14.93a2.28,2.28,0,0,1,2.25,2.25V83.16H31.43V65.9a2.28,2.28,0,0,1,2.25-2.25H48.61a6.45,6.45,0,0,0,12.9,0h42.2a6.45,6.45,0,0,0,12.9,0M103.7,48.84v6H61.52v-6a6.46,6.46,0,0,0-12.91,0v6H33.68a11.11,11.11,0,0,0-10.74,8.32v87.4a11.12,11.12,0,0,0,6.68,7.55h97.66a21,21,0,0,0,15.34-20.21v-72a11.09,11.09,0,0,0-11.08-11.09H116.61v-6a6.46,6.46,0,0,0-12.91,0"/></clipPath><linearGradient id="linear-gradient" x1="-331.91" y1="419.07" x2="-330.91" y2="419.07" gradientTransform="matrix(0, 186.74, 186.74, 0, -78173.28, 61975.28)" gradientUnits="userSpaceOnUse"><stop offset="0" stop-color="#ea1d89"/><stop offset="1" stop-color="#662f8e"/></linearGradient><clipPath id="clip-path-2" transform="translate(34.57 17.1)"><path class="cls-1" d="M61,103.73c-2.32,2-3.76,4.93-3.81,9h8.22a3.91,3.91,0,0,1,4.2-4.29c1.8,0,4,.84,4,3,0,2.66-2.31,3.11-4.15,3.11a23.34,23.34,0,0,1-2.54-.2v6.71a13.25,13.25,0,0,1,2.54-.25c2,0,4.07.55,4.07,3.56,0,2.81-1.58,3.85-4.07,3.85a4.18,4.18,0,0,1-3.63-1.53,5.63,5.63,0,0,1-1.18-4.1H56.32C56.1,125.14,56.14,136,69.83,136c10,0,12.78-6.62,12.78-10.81,0-7.65-5-7.65-5-8v-.1c0-.14,4-.14,4-7.35,0-2.91-2.93-8.84-11.76-8.84A13.76,13.76,0,0,0,61,103.73"/></clipPath><linearGradient id="linear-gradient-2" x1="-331.91" y1="419.35" x2="-330.91" y2="419.35" gradientTransform="matrix(0, 186.74, 186.74, 0, -78237.83, 61991.32)" xlink:href="#linear-gradient"/><clipPath id="clip-path-3" transform="translate(34.57 17.1)"><path class="cls-1" d="M97.53,101.26c-.27,5.68-4.64,7.55-9.06,7.45v7.11H95.6v19.79h9.1V101.26Z"/></clipPath><linearGradient id="linear-gradient-3" x1="-331.91" y1="419.35" x2="-330.91" y2="419.35" gradientTransform="matrix(0, 186.74, 186.74, 0, -78211.72, 61971.05)" xlink:href="#linear-gradient"/></defs><title>Event Manager</title><g class="cls-2"><rect class="cls-3" x="-0.24" y="17.06" width="166.04" height="166.34" transform="translate(-12.54 112) rotate(-48.09)"/></g><g class="cls-4"><rect class="cls-5" x="47.42" y="96.84" width="43.86" height="43.2" transform="translate(-30.55 108.05) rotate(-48.09)"/></g><g class="cls-6"><rect class="cls-7" x="78.38" y="100.92" width="36.4" height="35.02" transform="translate(-21.5 128.32) rotate(-48.09)"/></g></svg>