<svg id="Layer_1" data-name="Layer 1" xmlns="http://www.w3.org/2000/svg" xmlns:xlink="http://www.w3.org/1999/xlink" viewBox="0 0 237.83 237.83"><defs><style>.cls-1{fill:none;}.cls-2{clip-path:url(#clip-path);}.cls-3{fill:url(#linear-gradient);}.cls-4{clip-path:url(#clip-path-2);}.cls-5{fill:url(#linear-gradient-2);}</style><clipPath id="clip-path" transform="translate(36.13 18.85)"><path class="cls-1" d="M31.51,149V75.76a2.6,2.6,0,0,1,2.61-2.59h97.72a2.6,2.6,0,0,1,2.61,2.59V149a2.61,2.61,0,0,1-2.61,2.59H34.12A2.61,2.61,0,0,1,31.51,149M59.89,51.59c0-2.13,2.46-1.66,2.46-1.66H103.8a1.78,1.78,0,0,1,1.83,1.89v13.5H59.89ZM58.51,40.84a7.56,7.56,0,0,0-7.72,7.43v17H26.33a3,3,0,0,0-2.93,3v88.4a3,3,0,0,0,2.33,2.94H139.84a3,3,0,0,0,2.33-2.94V68.33a3,3,0,0,0-2.93-3H114.73c0-4.47.09-15.75,0-17.16a7.06,7.06,0,0,0-2.65-5.49c-2.34-2.21-6.06-1.83-6.06-1.83s-19.83-.05-33.9-.05c-7,0-12.63,0-13.6.05"/></clipPath><linearGradient id="linear-gradient" x1="-331.83" y1="419.72" x2="-330.83" y2="419.72" gradientTransform="matrix(0, 142.34, 142.34, 0, -59660.74, 47262.25)" gradientUnits="userSpaceOnUse"><stop offset="0" stop-color="#ea1d89"/><stop offset="1" stop-color="#662f8e"/></linearGradient><clipPath id="clip-path-2" transform="translate(36.13 18.85)"><path class="cls-1" d="M75.9,90.67H89.66v9.88s-.19,5.21,4.49,5.21h10.1v13.7H97.13a1.5,1.5,0,0,1-.29.06H93.5c-1.37.11-3.83.87-3.83,4.94v10H75.91v-10c0-4.08-2.57-4.83-4-5H68.73a.7.7,0,0,1-.14,0H60.71V105.76H72.79c2.86,0,3.1-2.79,3.12-3.49v-1h0Zm-2.07-5.56a3,3,0,0,0-3,3v9.19c0,.72-.19,3.3-2.27,3.3H58.28a3,3,0,0,0-3,3v18a3,3,0,0,0,3,3h9.25a3.2,3.2,0,0,1,3.27,3.48v9a3,3,0,0,0,3,3H91.74a3,3,0,0,0,3-3v-7.81c0-4.33,3.11-4.69,3.92-4.71h8.6a3,3,0,0,0,3-3v-18a3,3,0,0,0-3-3H98.08a3.06,3.06,0,0,1-3.31-3.18V88.14a3,3,0,0,0-3-3Z"/></clipPath><linearGradient id="linear-gradient-2" x1="-331.83" y1="419.99" x2="-330.83" y2="419.99" gradientTransform="matrix(0, 142.34, 142.34, 0, -59698.66, 47266.15)" xlink:href="#linear-gradient"/></defs><title>Health &amp;amp; Safety</title><g class="cls-2"><rect class="cls-3" x="-1.33" y="15.96" width="168.23" height="168.22" transform="translate(-10.64 109.9) rotate(-46.42)"/></g><g class="cls-4"><rect class="cls-5" x="43.85" y="73.72" width="77.86" height="77.86" transform="translate(-19.76 113.81) rotate(-46.42)"/></g></svg>