<svg id="Layer_1" data-name="Layer 1" xmlns="http://www.w3.org/2000/svg" xmlns:xlink="http://www.w3.org/1999/xlink" viewBox="0 0 387.48 194.38"><defs><style>.cls-1{fill:url(#linear-gradient);}.cls-2{fill:#fff;}</style><linearGradient id="linear-gradient" x1="15.21" y1="-4.73" x2="151.29" y2="172.51" gradientUnits="userSpaceOnUse"><stop offset="0" stop-color="#e4087e"/><stop offset="1" stop-color="#662c83"/></linearGradient></defs><title>logo</title><path class="cls-1" d="M131.34,44.08l0,0c-1.11-9.5-7-21.07-26-29.78C89,6.83,66,3.05,36.86,3.05H5.08L6.42,8.58C11.92,31.46,33.2,37.81,44.91,38c.47,0,1.6,0,3.19-.09,32.83-1.15,55.71,1.39,68,7.56a75.52,75.52,0,0,1,8.56,5c9.27,6.31,13.39,13.18,12.59,21-2.41,23.69-43.56,31.87-70.79,37.28l-5.1,1L47.29,99a3,3,0,0,1-1.14-3.09,3,3,0,0,1,2.38-2.37c1-.22,3-.46,5.61-.79,16.21-2.07,52.07-6.69,68.66-24.15a6,6,0,0,0-.86-9.16l-2-1.35-.2-.12-.11.19C108.45,76.77,68.17,81.91,53,83.85c-3,.38-5.23.68-6.38.93a12,12,0,0,0-9.49,10.77,12.56,12.56,0,0,0,5.18,11l32.44,24.56c11.67,7.9,38.78,30.93,38.72,51a0,0,0,0,1-.06,0L49.32,133.91a7.12,7.12,0,0,1-2.88-5.29,7.55,7.55,0,0,1,2.2-5.79l-.21-.21-6.85-5.19a0,0,0,0,0,0,0,16.34,16.34,0,0,0-4.05,11.75,15.94,15.94,0,0,0,6.43,11.89l74.93,56.35,2-5.81C132,159.46,81.92,125.08,80,123.77l-9-6.83c29.77-5.94,72.28-15.23,75.27-44.64C147.32,61.57,142.31,52.08,131.34,44.08ZM63.43,28.58c-6.58,0-12.11.2-15.64.32C46.42,29,45.51,29,45,29c-8.05-.1-21.92-3.91-27.94-16.9,0,0,0-.06,0-.06H36.86c27.84,0,49.6,3.51,64.68,10.42q13.41,6.15,18.28,14.8C104.86,29.9,80.57,28.58,63.43,28.58Z" transform="translate(-5.08 -3.05)"/><path class="cls-2" d="M294.25,108.19c0,13.6-10.48,24.18-23.26,24.18-7.82,0-13.7-3.49-17.38-9.1v17.92a1.76,1.76,0,0,1-1.76,1.76h-4.49a1.75,1.75,0,0,1-1.75-1.76V86.94a1.74,1.74,0,0,1,1.75-1.74h4.5a1.75,1.75,0,0,1,1.75,1.74v6.17C257.29,87.49,263.17,84,271,84,283.77,84,294.25,94.58,294.25,108.19Zm-8,0A16.32,16.32,0,1,0,270,124.65,16.07,16.07,0,0,0,286.25,108.19Z" transform="translate(-5.08 -3.05)"/><path class="cls-2" d="M325.61,124.83c5.66,0,9.94-2.35,12.42-5.53a1.73,1.73,0,0,1,2.22-.39L344,121a1.78,1.78,0,0,1,.49,2.67c-4.16,5.29-10.68,8.69-19,8.69-14.81,0-24.65-10.39-24.65-24.18,0-13.61,9.75-24.19,24.09-24.19,13.89,0,22.9,11.4,22.9,24.28a22.73,22.73,0,0,1-.28,3.58H309C310.53,120.14,317.05,124.83,325.61,124.83Zm-16.65-20h30.72c-1.38-9.11-7.91-13.34-14.81-13.34C316.23,91.54,310.25,96.87,309,104.88Z" transform="translate(-5.08 -3.05)"/><path class="cls-2" d="M353.24,131.18h4.95a1.77,1.77,0,0,0,1.42-.72l7.11-9.52a1.79,1.79,0,0,0,0-2.12l-2.49-3.34a1.75,1.75,0,0,0-2.8,0l-9.61,12.87A1.78,1.78,0,0,0,353.24,131.18Z" transform="translate(-5.08 -3.05)"/><path class="cls-2" d="M376.73,107.45,391.21,88a1.75,1.75,0,0,0-1.41-2.79h-5a1.76,1.76,0,0,0-1.42.71L372.05,101.2,360.71,85.91a1.76,1.76,0,0,0-1.42-.71h-5.05A1.77,1.77,0,0,0,352.82,88l14.53,19.51,4.7,6.26,12.34,16.67a1.78,1.78,0,0,0,1.41.71h5a1.78,1.78,0,0,0,1.42-2.83Z" transform="translate(-5.08 -3.05)"/><path class="cls-2" d="M225.93,86.51v6.6c-3.68-5.62-9.56-9.11-17.38-9.11-12.78,0-23.26,10.58-23.26,24.19s10.48,24.18,23.26,24.18a22,22,0,0,0,7.32-1.2,3.08,3.08,0,0,0,2.06-2.91V123.4a.57.57,0,0,0-.84-.5,16.7,16.7,0,0,1-7.53,1.75,16.47,16.47,0,1,1,16.37-16.46v21.22a1.77,1.77,0,0,0,1.77,1.77h4.46a1.77,1.77,0,0,0,1.77-1.77V86.51a1.3,1.3,0,0,0-1.31-1.31h-5.38A1.31,1.31,0,0,0,225.93,86.51Z" transform="translate(-5.08 -3.05)"/></svg>