<svg id="Layer_1" data-name="Layer 1" xmlns="http://www.w3.org/2000/svg" xmlns:xlink="http://www.w3.org/1999/xlink" viewBox="0 0 127.95 176.02"><defs><style>.cls-1{fill:url(#linear-gradient);}</style><linearGradient id="linear-gradient" x1="20.1" y1="6.07" x2="143.33" y2="166.57" gradientUnits="userSpaceOnUse"><stop offset="0" stop-color="#e4087e"/><stop offset="1" stop-color="#662c83"/></linearGradient></defs><title>logo icon only</title><path class="cls-1" d="M125.26,50.27v0c-1-8.61-6.38-19.08-23.59-27-14.73-6.75-35.57-10.17-62-10.17H10.93l1.21,5c5,20.72,24.25,26.47,34.86,26.6.42,0,1.44,0,2.89-.07,29.72-1,50.44,1.25,61.6,6.84A65.73,65.73,0,0,1,119.24,56c8.4,5.72,12.13,12,11.41,19-2.18,21.45-39.44,28.86-64.1,33.76l-4.63.92L49.15,100a2.7,2.7,0,0,1-1-2.8,2.76,2.76,0,0,1,2.16-2.15c.92-.2,2.69-.41,5.08-.72,14.68-1.87,47.16-6,62.18-21.87a5.44,5.44,0,0,0-.78-8.28L115,63l-.18-.11-.1.17c-10.14,16.85-46.62,21.5-60.36,23.26-2.72.34-4.73.61-5.77.84A10.88,10.88,0,0,0,40,96.87a11.34,11.34,0,0,0,4.69,9.92L74,129c10.56,7.15,35.12,28,35.06,46.19a0,0,0,0,1,0,0L51,131.61a6.43,6.43,0,0,1-2.61-4.79,6.86,6.86,0,0,1,2-5.24l-.19-.19-6.2-4.7a0,0,0,0,0,0,0,14.78,14.78,0,0,0-3.66,10.64,14.46,14.46,0,0,0,5.82,10.77l67.85,51,1.83-5.26c10.1-29.11-35.26-60.24-37-61.43l-8.17-6.19c27-5.38,65.45-13.79,68.16-40.42C139.73,66.1,135.2,57.51,125.26,50.27Zm-61.49-14c-6,0-11,.18-14.17.29-1.24,0-2.07.07-2.5.07-7.3-.09-19.86-3.54-25.31-15.31,0,0,0,0,0,0H39.7c25.21,0,44.92,3.17,58.57,9.43q12.15,5.56,16.56,13.4C101.29,37.43,79.28,36.23,63.77,36.23Z" transform="translate(-10.93 -13.11)"/></svg>