<svg id="Layer_1" data-name="Layer 1" xmlns="http://www.w3.org/2000/svg" xmlns:xlink="http://www.w3.org/1999/xlink" viewBox="0 0 290.4 299.72"><defs><style>.cls-1{fill:none;}.cls-2{clip-path:url(#clip-path);}.cls-3{fill:url(#linear-gradient);}.cls-4{clip-path:url(#clip-path-2);}.cls-5{fill:url(#linear-gradient-2);}</style><clipPath id="clip-path" transform="translate(62.42 49.63)"><path class="cls-1" d="M95.22,167.54l-.24,0h0l.24,0m.36-.08a1.52,1.52,0,0,1-.2.06,1.52,1.52,0,0,0,.2-.06m.36-.16a.81.81,0,0,1-.18.1.81.81,0,0,0,.18-.1m.32-.22a.79.79,0,0,1-.17.14.79.79,0,0,0,.17-.14m.3-.31-.17.21.17-.21m.18-.28a.93.93,0,0,1-.11.19.93.93,0,0,0,.11-.19m.09-.18v0m-9-31.41c0,.07,0,.14,0,.21s0-.14,0-.21m6.32-1.6A13,13,0,0,1,92,135.9a13,13,0,0,0,2.16-2.6M96.05,127a13,13,0,0,1-.17,1.66,13,13,0,0,0,.17-1.66m-4-.47c0,.11,0,.22,0,.33,0-.11,0-.22,0-.33M75.67,162.1l4.49-26.41a3.43,3.43,0,0,0-1.31-3.33,7.31,7.31,0,0,1-1.42-10.23,7.22,7.22,0,0,1,1.28-1.31,7.45,7.45,0,0,1,4.6-1.6,7.7,7.7,0,0,1,1.72.2,7.34,7.34,0,0,1,5.36,8.84,7.42,7.42,0,0,1-2.69,4.1,3.45,3.45,0,0,0-1.32,3.34l4.49,26.4Zm2.13-42.42a8.92,8.92,0,0,1,1.11-.74,8.92,8.92,0,0,0-1.11.74,8.69,8.69,0,0,0-1.53,1.56,8.69,8.69,0,0,1,1.53-1.56m3.89-1.76a7.9,7.9,0,0,0-1.27.33,7.9,7.9,0,0,1,1.27-.33m1.53-.15a8.23,8.23,0,0,0-1.21.1,8.23,8.23,0,0,1,1.21-.1m-6.84-2a9.89,9.89,0,0,0-1.07.76,9.89,9.89,0,0,1,1.07-.76m1.19-.67c-.29.15-.58.3-.86.47.28-.17.57-.32.86-.47m1.53-.66c-.4.15-.8.31-1.2.49.4-.18.79-.34,1.2-.49m1.25-.35q-.59.14-1.17.33.58-.19,1.17-.33m1.33-.24c-.32,0-.64.09-1,.16.31-.07.63-.12,1-.16m1.62-.11h0a11.15,11.15,0,0,0-1.29.07c.42,0,.84-.07,1.26-.07m-8.9,1.64a14.26,14.26,0,0,0-2.28,20,12.25,12.25,0,0,0,.9,1L68.15,165A3.48,3.48,0,0,0,71,169a3.81,3.81,0,0,0,.59.05H95a3.47,3.47,0,0,0,3.46-3.46,3.79,3.79,0,0,0,0-.58l-4.86-28.57a14.23,14.23,0,0,0-6.94-23.73,14,14,0,0,0-3.29-.38,14.37,14.37,0,0,0-8.9,3.1"/></clipPath><linearGradient id="linear-gradient" x1="-332.42" y1="418.84" x2="-331.42" y2="418.84" gradientTransform="matrix(0, 234.15, 234.15, 0, -97988.16, 77830.39)" gradientUnits="userSpaceOnUse"><stop offset="0" stop-color="#ea1d89"/><stop offset="1" stop-color="#662f8e"/></linearGradient><clipPath id="clip-path-2" transform="translate(62.42 49.63)"><path class="cls-1" d="M128.49,196.9a13,13,0,0,0,10-4.7,13.77,13.77,0,0,0,1.39-2.06,13.77,13.77,0,0,1-1.39,2.06,13,13,0,0,1-10,4.7H38.05a11.67,11.67,0,0,1-1.32-.07,12.75,12.75,0,0,1-3.7-1,12.75,12.75,0,0,0,3.7,1,11.67,11.67,0,0,0,1.32.07ZM30.61,184V100.57a7.45,7.45,0,0,1,7.45-7.44h90.43a7.47,7.47,0,0,1,7.45,7.45V184a7.48,7.48,0,0,1-7.45,7.45H38.06A7.47,7.47,0,0,1,30.61,184M63.73,60.44a6.29,6.29,0,0,1-1.34,2,6.29,6.29,0,0,0,1.34-2M64.22,58a5.73,5.73,0,0,1-.13,1.26A5.73,5.73,0,0,0,64.22,58m1.59-22.5a18.89,18.89,0,0,0-1.18,3.69,18.89,18.89,0,0,1,1.18-3.69M48.33,38.88c.15-1.15.36-2.28.61-3.39-.25,1.11-.46,2.24-.61,3.39A36.92,36.92,0,0,0,48,43.49a36.92,36.92,0,0,1,.31-4.61m2.12-8.27c-.41,1.05-.77,2.12-1.08,3.22.31-1.1.67-2.17,1.08-3.22m18.46,0a19.23,19.23,0,0,0-2.24,3.18,19.23,19.23,0,0,1,2.24-3.18m3.31-3-.51.35.51-.35m1.68-1.08-.64.37.64-.37m1.71-.86-.72.32.72-.32M77.36,25,77,25.1l.38-.12m-8.08-.21a22,22,0,0,0-1.74,1.48,22,22,0,0,1,1.74-1.48m9.89-.29-.79.19.79-.19m5.41-.41h0M82.9,24c-.27,0-.54,0-.81,0,.27,0,.54,0,.81,0m-11.75-.56c-.43.26-.84.55-1.25.85.41-.3.82-.59,1.25-.85m41-.53c.14.21.29.42.43.64-.14-.22-.29-.43-.43-.64m-39.05-.57c-.41.2-.81.43-1.2.65.39-.22.79-.45,1.2-.65m2.07-.89c-.41.15-.81.33-1.21.5.4-.17.8-.35,1.21-.5m2.15-.68c-.42.11-.83.23-1.24.37.41-.14.82-.26,1.24-.37m2.22-.47c-.43.07-.85.14-1.27.24.42-.1.84-.17,1.27-.24m2.27-.25c-.44,0-.87.06-1.3.11.43-.05.86-.09,1.3-.11M83.21,20c.54,0,1.09,0,1.64.06-.69,0-1.36,0-2,0l.4,0m22.15-4.38.59.49-.59-.49m-44.22.25c.86-.7,1.75-1.37,2.68-2-.93.62-1.82,1.29-2.68,2a35.86,35.86,0,0,0-9.32,11.64,35.86,35.86,0,0,1,9.32-11.64M58,58.8l-7.65,0a.82.82,0,0,1-.82-.82V44.16A34.27,34.27,0,0,1,81.59,9.34c.54,0,1.11,0,1.67,0A33.77,33.77,0,0,1,117,41.45c0,.54,0,1.09,0,1.63V86.2h-9.27V43.82A25.06,25.06,0,0,0,85,18.62c-.6,0-1.18-.06-1.76-.06a24.18,24.18,0,0,0-16.67,6.62,24.67,24.67,0,0,0-7.78,17.9V58a.8.8,0,0,1-.79.8v0ZM74.57,9a32.55,32.55,0,0,0-3.26,1,32.55,32.55,0,0,1,3.26-1M91.13,4.63l.85.2-.85-.2m-7.9-.79h0l1,0-1,0m0-1.47c-.67,0-1.33,0-2,0A41.19,41.19,0,0,0,42.57,44.18V58a7.78,7.78,0,0,0,7.71,7.75l7.66,0A7.73,7.73,0,0,0,65.68,58V43.08a17.77,17.77,0,0,1,5.59-12.85,17.36,17.36,0,0,1,12-4.74c.42,0,.84,0,1.25,0A18.1,18.1,0,0,1,100.86,43.8V86.2H38.05a14.42,14.42,0,0,0-14.37,14.37V184A14.43,14.43,0,0,0,35.31,198.1h95.93a14.49,14.49,0,0,0,10.65-8.92V95.39a14.42,14.42,0,0,0-13.4-9.19H124V43.08A40.81,40.81,0,0,0,83.23,2.37Z"/></clipPath><linearGradient id="linear-gradient-2" x1="-332.42" y1="418.61" x2="-331.42" y2="418.61" gradientTransform="matrix(0, 234.15, 234.15, 0, -97934.93, 77824.71)" xlink:href="#linear-gradient"/></defs><title>Security</title><g class="cls-2"><rect class="cls-3" x="54.91" y="108.31" width="55.85" height="64.7" transform="translate(2.06 111.91) rotate(-30.81)"/></g><g class="cls-4"><rect class="cls-5" x="-18.1" y="-14.09" width="201.77" height="228.64" transform="translate(22.76 106.17) rotate(-30.81)"/></g></svg>