<svg id="Layer_1" data-name="Layer 1" xmlns="http://www.w3.org/2000/svg" xmlns:xlink="http://www.w3.org/1999/xlink" viewBox="0 0 246.3 246.3"><defs><style>.cls-1{fill:none;}.cls-2{clip-path:url(#clip-path);}.cls-3{fill:url(#linear-gradient);}.cls-4{clip-path:url(#clip-path-2);}.cls-5{fill:url(#linear-gradient-2);}</style><clipPath id="clip-path" transform="translate(40.37 22.92)"><path class="cls-1" d="M40.39,140.75a2.75,2.75,0,1,1,2.75,2.75,2.75,2.75,0,0,1-2.75-2.75m-6.65,0a9.4,9.4,0,1,0,9.4-9.4,9.41,9.41,0,0,0-9.4,9.4"/></clipPath><linearGradient id="linear-gradient" x1="-332.03" y1="419.58" x2="-331.03" y2="419.58" gradientTransform="matrix(0, 172.89, 172.89, 0, -72498.02, 57452.37)" gradientUnits="userSpaceOnUse"><stop offset="0" stop-color="#ea1d89"/><stop offset="1" stop-color="#662f8e"/></linearGradient><clipPath id="clip-path-2" transform="translate(40.37 22.92)"><path class="cls-1" d="M111,153,99,141a9,9,0,0,1-2.34-8.69l.52-1.87-7.33-7.32,3.72-3.73,7.34,7.32,1.86-.51a9,9,0,0,1,8.68,2.33l12,12a8.91,8.91,0,0,1,.1,12.56,8.67,8.67,0,0,1-6.18,2.54A9,9,0,0,1,111,153M29,62.41l3.9-3.9,10.6,5.3v5.47L64.52,90.36,60.8,94.08,39.7,73H34.26ZM72.24,92l6-6-.46-1.83a31.56,31.56,0,0,1,7.92-29.63,29.4,29.4,0,0,1,19.14-8.92h.31a1.52,1.52,0,0,1,1.47,1.56,1.69,1.69,0,0,1-.43,1.12L100,54.66a20.92,20.92,0,0,0-5.74,14.55,20.8,20.8,0,0,0,20.41,20.42,20.92,20.92,0,0,0,14.56-5.74l6.3-6.18a1.68,1.68,0,0,1,1.17-.48,1.52,1.52,0,0,1,1.56,1.46V79a29.4,29.4,0,0,1-8.92,19.13,31.6,31.6,0,0,1-29.65,8l-1.83-.46-4.4,4.4h0l-8.36,8.35h0L51.73,151.76a13.9,13.9,0,0,1-9.8,3.89A13.7,13.7,0,0,1,28.24,142a13.84,13.84,0,0,1,3.89-9.8l28.21-28.23h0Zm32.34-53A36,36,0,0,0,81,49.9a38.26,38.26,0,0,0-10,34l-1.72,1.72L50.11,66.53V59.7L31.55,50.41,20.86,61.09l9.29,18.57H37L56.08,98.77,27.42,127.46a20.55,20.55,0,0,0,8.8,34H47.77a20,20,0,0,0,8.66-5l28.66-28.69,4.71,4.7a15.69,15.69,0,0,0,4.44,13.17l12.06,12.06a15.55,15.55,0,0,0,6.13,3.78h9.87a15.27,15.27,0,0,0,6-3.69,15.57,15.57,0,0,0-.1-22l-12.07-12.06a15.68,15.68,0,0,0-13.16-4.43l-4.7-4.69,1.7-1.69A38.33,38.33,0,0,0,134,102.9,36.15,36.15,0,0,0,144.7,81.49V76.9a8.19,8.19,0,0,0-8-6.32,8.36,8.36,0,0,0-5.79,2.34l-6.33,6.21A14.24,14.24,0,0,1,114.67,83a14.15,14.15,0,0,1-13.76-13.76,14.18,14.18,0,0,1,3.84-9.89L111,52.93a8.32,8.32,0,0,0,2.3-5.74A8.17,8.17,0,0,0,105.19,39Z"/></clipPath><linearGradient id="linear-gradient-2" x1="-332.03" y1="419.28" x2="-331.03" y2="419.28" gradientTransform="matrix(0, 172.89, 172.89, 0, -72406.08, 57413.23)" xlink:href="#linear-gradient"/></defs><title>Servicing</title><g class="cls-2"><rect class="cls-3" x="29.84" y="127.45" width="26.59" height="26.59" transform="translate(-45.57 92.88) rotate(-44.22)"/></g><g class="cls-4"><rect class="cls-5" x="-4.31" y="13.15" width="174.19" height="174.17" transform="translate(-6.08 109.05) rotate(-44.22)"/></g></svg>