<?xml version="1.0" encoding="utf-8"?>
<!-- Generator: Adobe Illustrator 23.0.1, SVG Export Plug-In . SVG Version: 6.00 Build 0)  -->
<svg version="1.1" id="Layer_1" xmlns="http://www.w3.org/2000/svg" xmlns:xlink="http://www.w3.org/1999/xlink" x="0px" y="0px"
	 viewBox="0 0 248.5 274.2" style="enable-background:new 0 0 248.5 274.2;" xml:space="preserve">
<style type="text/css">
	.st0{fill:url(#SVGID_1_);}
	.st1{fill:url(#SVGID_2_);}
	.st2{fill:url(#SVGID_3_);}
</style>
<title>Energy</title>
<g>
	<linearGradient id="SVGID_1_" gradientUnits="userSpaceOnUse" x1="38.2036" y1="51.1731" x2="209.9362" y2="222.9058">
		<stop  offset="0" style="stop-color:#E4087E"/>
		<stop  offset="1" style="stop-color:#642681"/>
	</linearGradient>
	<path class="st0" d="M201,228.7l0-183.2h0c0-0.1,0-0.1,0-0.2c0-4.1-3.3-7.4-7.4-7.4c-0.1,0-0.1,0-0.2,0v0H54.7v0
		c-0.1,0-0.1,0-0.2,0c-4.1,0-7.4,3.3-7.4,7.4c0,0.1,0,0.1,0,0.2h0v183.2h0.2c0,0.1,0,0.1,0,0.2c0,4.1,3.3,7.4,7.4,7.4
		c0.1,0,0.1,0,0.2,0v0h138.3v0c0.1,0,0.1,0,0.2,0c4.1,0,7.4-3.3,7.4-7.4c0-0.1,0-0.1,0-0.2H201z M124.1,232.8
		c-2.7,0-4.8-2.2-4.8-4.8c0-2.7,2.2-4.8,4.8-4.8c2.7,0,4.8,2.2,4.8,4.8C128.9,230.7,126.7,232.8,124.1,232.8z M62.9,218.7V56.1
		h122.3l0,162.6H62.9z"/>
	<linearGradient id="SVGID_2_" gradientUnits="userSpaceOnUse" x1="82.9434" y1="128.7737" x2="124.0346" y2="169.8649">
		<stop  offset="0" style="stop-color:#E4087E"/>
		<stop  offset="1" style="stop-color:#642681"/>
	</linearGradient>
	<path class="st1" d="M114.2,120.9c-3-1.1-6.3-1.7-9.7-1.7c-16,0-29.1,13-29.1,29.1c0,16,13,29.1,29.1,29.1c16,0,29.1-13,29.1-29.1
		c0-0.1,0-0.2,0-0.2C122.3,144.1,114.3,133.5,114.2,120.9z M113.9,155.2c1.3,1.3,1.3,3.4,0,4.7c-0.6,0.6-1.5,1-2.3,1
		c-0.8,0-1.7-0.3-2.3-1l-6.2-6.2l-6.2,6.2c-0.6,0.6-1.5,1-2.3,1c-0.8,0-1.7-0.3-2.3-1c-1.3-1.3-1.3-3.4,0-4.7l6.2-6.2l-6.2-6.2
		c-1.3-1.3-1.3-3.4,0-4.7c1.3-1.3,3.4-1.3,4.7,0l6.2,6.2l6.2-6.2c1.3-1.3,3.4-1.3,4.7,0c1.3,1.3,1.3,3.4,0,4.7l-6.2,6.2L113.9,155.2
		z"/>
	<linearGradient id="SVGID_3_" gradientUnits="userSpaceOnUse" x1="127.9619" y1="98.8349" x2="165.0703" y2="135.9432">
		<stop  offset="0" style="stop-color:#E4087E"/>
		<stop  offset="1" style="stop-color:#642681"/>
	</linearGradient>
	<path class="st2" d="M146.5,91.1c-14.5,0-26.3,11.8-26.3,26.3l0,0.2c0.1,11,7.1,20.9,17.5,24.6c2.8,1,5.7,1.5,8.7,1.5
		c14.5,0,26.3-11.8,26.3-26.2C172.8,102.9,161,91.1,146.5,91.1z M161.6,111.3l-17.8,17.8c-0.6,0.6-1.5,1-2.3,1c-0.1,0-0.2,0-0.3,0
		c-1-0.1-1.9-0.6-2.4-1.4l-7.6-10.8c-1-1.5-0.7-3.6,0.8-4.6c1.5-1,3.6-0.7,4.6,0.8l5.3,7.6l15-15c1.3-1.3,3.4-1.3,4.7,0
		C162.8,108,162.8,110,161.6,111.3z"/>
</g>
</svg>
