<svg id="Layer_1" data-name="Layer 1" xmlns="http://www.w3.org/2000/svg" xmlns:xlink="http://www.w3.org/1999/xlink" viewBox="0 0 308.55 310.55"><defs><style>.cls-1{fill:none;}.cls-2{clip-path:url(#clip-path);}.cls-3{fill:url(#linear-gradient);}</style><clipPath id="clip-path" transform="translate(71.49 55.04)"><path class="cls-1" d="M24.7,180.62C18.28,178.85,12,174.08,9.25,169l2.88-4.14c2.2-3.17,4.7-6.75,5.56-7.95s2-2.9,2.59-3.71,1.62-2.34,2.41-3.45,3.16-4.5,5.23-7.48,4.65-6.66,5.77-8.22c1.87-2.6,9.1-12.92,12.48-17.82.73-1,1.78-2.56,2.35-3.35l4.23-6c1.74-2.5,4.75-6.77,6.67-9.51,1.46-2.07,3-4.25,3.89-5.56.56.38,1.23.86,1.94,1.36l1.27.9c3.07,2.17,6.84,4.8,8.37,5.86s3.4,2.35,4.2,2.92L80.78,104c-1.08,1.5-2.38,3.36-2.93,4.15-2.13,3-5.09,7.26-6.57,9.34s-4.59,6.52-6.9,9.82-5.35,7.64-6.77,9.65c-2.83,4-5.54,7.88-7.6,10.84-.72,1-2.61,3.74-4.19,6l-4.94,7-8.81,12.58-5.46,7.77c-.57-.14-1.3-.34-1.91-.51m107.17-74.3c-1.27-.07-1.27-.07-5.51-3.06l2.22-3.25c1-1.46,9.11-13,13.36-19.06,1.59-2.27,3.44-4.91,4.11-5.88s2.47-3.53,4-5.71l.69-1c.55-.76,1-1.43,1.42-2,1.82,1.24,5.11,3.51,5.32,4.72.27,1.5-2.87,6-4.75,8.69l-7,10c-1.49,2.17-3.05,4.39-3.44,4.91s-2.13,3-3.44,5c-4.11,6-4.76,6.71-6.34,6.71l-.68,0M25.35,25.25a.42.42,0,0,1,0-.1C27.13,23.64,37,20.58,48.75,19.8c20.3-1.34,42.53,6,64.26,21.28l4.6,3.23,1,1.84c5.93,11.21,14.94,18.26,25.18,19.9L135.4,78.17c-.81,1.16-3.31,4.78-5.57,8l-4.56,6.62a16.34,16.34,0,0,0-12.08-7.44c-8.65-.94-18.45,4.33-26.2,14.11-.11.14-.22.28-.33.4l-7.84-5.49C74.47,91.36,68.37,87.1,65.27,85c-1.21-.84-2.24-1.58-3.06-2.17.92-1.35,2.23-3.23,3.81-5.47,2.8-4,6.21-9,7.08-10.66A24.5,24.5,0,0,0,71.25,40C62.77,28.25,45.46,22.26,28.19,25.13a11,11,0,0,1-1.93.18,6.74,6.74,0,0,1-.91-.06M53.43,13c-1.71,0-3.42.06-5.12.17-6.59.43-26,3-28.83,8.92-1.75,3.67-.59,6.09.25,7.2,1.22,1.63,3.87,3.36,9.55,2.42C46.41,28.85,60,35.78,65.85,43.93a17.84,17.84,0,0,1,1.38,19.6c-.57,1.06-3.43,5.41-6.64,9.94-6.17,8.73-6.17,8.78-6.17,10,0,1.49.35,2.12,3.47,4.37-.89,1.29-2.44,3.5-3.91,5.6-1.93,2.73-4.93,7-6.68,9.51l-4.21,6c-.57.81-1.65,2.35-2.39,3.42-3.37,4.87-10.56,15.14-12.41,17.73-1.13,1.57-3.76,5.31-5.83,8.29s-4.39,6.29-5.19,7.42-1.94,2.75-2.5,3.57-1.67,2.41-2.51,3.6-3.38,4.81-5.59,8l-4.89,7v.91l1.41,2.77c3.48,6.88,11.42,13,19.75,15.33l1.64.44h4.9a6.54,6.54,0,0,0,2.33-2.19c.54-.75,3.1-4.4,5.7-8.11l8.82-12.59c1.13-1.6,3.34-4.76,4.93-7l4.22-6c2-2.95,4.75-6.81,7.57-10.81,1.42-2,4.47-6.36,6.78-9.66s5.4-7.7,6.88-9.79,4.45-6.32,6.59-9.38l3-4.28.53,0c1.78.11,2.84-.86,5.36-4,6.23-7.85,14-12.32,20.27-11.63,3.64.39,6.39,2.45,8.18,6.13l.39.79A.35.35,0,0,1,121,99c-2.14,3.07-2.23,3.41-2.37,3.89-.72,2.54,1.4,4,4,5.84,5.09,3.59,5.75,4.05,9,4.23,5.77.3,7.68-2,12.81-9.57,1.53-2.24,3-4.29,3.3-4.74s2-2.85,3.57-5.1,4.66-6.71,7-10c2.76-4,4.77-7,5.57-9.76v-5c-1-3.1-4-5.31-7.88-8l-5.82-4-2,2.94c-9.46-.14-18-6.22-23.61-16.72l-1.72-3.26-5.91-4.15C95.63,20.75,73.83,13,53.44,13h0"/></clipPath><linearGradient id="linear-gradient" x1="-332.64" y1="419" x2="-331.64" y2="419" gradientTransform="matrix(0, 170.43, 170.43, 0, -71326.91, 56695.74)" gradientUnits="userSpaceOnUse"><stop offset="0" stop-color="#ea1d89"/><stop offset="1" stop-color="#662f8e"/></linearGradient></defs><title>Work Orders</title><g class="cls-2"><rect class="cls-3" x="-30.07" y="-15.12" width="225.71" height="230.7" transform="translate(33.64 106.83) rotate(-28.57)"/></g></svg>